<svg width="174" height="49" viewBox="0 0 174 49" fill="none" xmlns="http://www.w3.org/2000/svg">
<path fill-rule="evenodd" clip-rule="evenodd" d="M50.4136 26.1383L56.8044 33.6748C57.0793 33.996 57.1295 34.3495 56.9143 34.7066C56.8694 34.7899 56.7876 34.8586 56.7098 34.9239C56.6992 34.9328 56.6886 34.9416 56.6783 34.9504L56.4624 35.1332L55.6983 35.7843C55.3758 36.0588 54.9073 36.0658 54.5693 35.7286L47.9523 27.8578V35.1792C47.9523 35.6357 47.5824 35.9847 47.14 35.9847H45.8959C45.4653 35.9847 45.0835 35.649 45.0835 35.1549V12.8426C45.0835 12.4772 45.4211 12.085 45.8959 12.085H47.14C47.6277 12.085 47.9523 12.4597 47.9523 12.9105V25.3573V25.3745L54.3149 19.5453C54.5688 19.2745 54.9848 19.2673 55.2438 19.537L55.8882 20.2119C56.0503 20.3735 56.1616 20.7538 56.0005 21.0811C55.9772 21.122 55.9135 21.2329 55.8556 21.2928L50.4308 26.1193L50.4136 26.1383ZM126.554 19.3759C128.532 19.3759 130.223 20.0966 131.626 21.5398C133.175 23.123 133.952 25.1764 133.952 27.682C133.952 30.2325 133.175 32.2861 131.626 33.8544C130.204 35.2766 128.508 35.9846 126.539 35.9846C124.576 35.9846 122.858 35.3125 121.418 33.8579V35.1567C121.418 35.6144 121.059 35.9846 120.611 35.9846H119.354C118.91 35.9846 118.549 35.627 118.549 35.1696V34.4214V33.3279V15.8023V14.6156V14.0941C118.549 13.6396 118.91 13.2806 119.354 13.2806H120.611C121.059 13.2806 121.418 13.6507 121.418 14.1053V15.8023V15.8087V21.9454C122.773 20.3152 124.582 19.3759 126.554 19.3759ZM113.616 26.1381V33.1183V34.5943V35.171C113.616 35.6203 113.977 35.9845 114.415 35.9845H115.704C116.147 35.9845 116.497 35.6203 116.497 35.171V34.5943V33.1183V25.2819C116.497 23.6932 116.065 22.3519 115.256 21.2592C114.326 19.9795 112.874 19.3983 111.311 19.3375C109.366 19.3375 108.473 19.6665 107.308 20.5097C106.499 21.164 106.109 21.7767 105.792 22.2967C105.317 21.4224 104.882 20.9101 104.277 20.4543C103.121 19.5835 102.124 19.3947 101.107 19.3411C99.1651 19.2686 97.3665 19.9729 96.1009 21.6581V20.9211V20.7849C96.1009 20.3371 95.7427 19.9714 95.3041 19.9714H93.9993C93.5618 19.9714 93.2034 20.3371 93.2034 20.7849V20.9211V22.4406V33.1183V34.5943V35.171C93.2034 35.6203 93.5618 35.9845 93.9993 35.9845H95.3041C95.7427 35.9845 96.1009 35.6203 96.1009 35.171V34.5943V33.1183V26.1381C96.1009 25.6169 96.5707 21.9378 100.319 21.9378C103.048 21.9378 103.412 24.5406 103.412 25.8387V33.1183V34.5943V35.171C103.412 35.6203 103.767 35.9845 104.211 35.9845H105.481C105.921 35.9845 106.277 35.6203 106.277 35.171V34.5943V33.1183V26.1381C106.277 26.1381 106.48 21.9451 110.473 21.9451C113.905 21.9451 113.616 26.1381 113.616 26.1381ZM142.604 33.3808C139.378 33.1895 137.977 30.5981 137.977 28.632H148.374C148.374 28.632 149.148 28.4956 149.4 28.2236C149.658 27.9539 149.784 27.6193 149.784 27.2223C149.784 25.0317 149.16 23.1904 147.912 21.7066C146.582 20.1193 144.774 19.3376 142.486 19.3376C140.073 19.3376 138.214 20.1845 136.907 21.8971C135.741 23.4185 135.159 25.3322 135.159 27.6325C135.159 30.2857 135.854 32.3295 137.246 33.7721C138.505 35.0805 140.28 35.8644 142.471 35.9846C148.062 35.9846 149.491 31.3934 149.491 31.3934C149.8 30.3139 149.24 30.3014 148.467 30.2842L148.467 30.2842C148.347 30.2816 148.222 30.2788 148.094 30.2718C147.75 30.2513 147.372 30.4461 147.178 30.6534C147.061 30.778 146.982 30.9133 146.982 30.9133C145.472 33.646 142.604 33.3808 142.604 33.3808ZM65.9353 19.3384C68.3879 19.3384 70.3524 20.1034 71.8316 21.6307C73.3134 23.18 74.0532 25.1913 74.0532 27.6635C74.0532 30.1314 73.3134 32.1452 71.8316 33.6935C70.3524 35.2228 68.3879 35.9846 65.9353 35.9846C63.4608 35.9846 61.4936 35.2228 60.0364 33.6935C58.5557 32.1669 57.8174 30.1524 57.8174 27.6635C57.8174 25.1703 58.5557 23.1595 60.0364 21.6307C61.4936 20.1034 63.4608 19.3384 65.9353 19.3384ZM62.3985 32.0773C62.8948 32.5276 63.4566 32.8574 64.079 33.0661C64.7027 33.2765 65.3149 33.3809 65.9179 33.3809C66.5232 33.3809 67.1335 33.2765 67.7583 33.0661C68.3801 32.8574 68.9475 32.5291 69.4546 32.0936C70.5968 31.0678 71.1658 29.5747 71.1658 27.6278C71.1658 25.746 70.5968 24.2772 69.4546 23.2339C68.5041 22.3757 67.3284 21.9456 65.9349 21.9456C63.6517 21.9456 62.0638 22.9624 61.1787 24.9926C60.8588 25.7259 60.6997 26.6108 60.6997 27.6427C60.6997 28.6816 60.8588 29.569 61.1787 30.2992C61.4932 31.0361 61.901 31.6233 62.3985 32.0775V32.0773ZM83.4205 19.3384C85.8725 19.3384 87.8381 20.1034 89.3179 21.6307C90.7996 23.18 91.5379 25.1913 91.5379 27.6635C91.5379 30.1314 90.7996 32.1452 89.3179 33.6935C87.8381 35.2228 85.8725 35.9846 83.4205 35.9846C80.946 35.9846 78.981 35.2228 77.522 33.6935C76.0414 32.1669 75.302 30.1524 75.302 27.6635C75.302 25.1703 76.0414 23.1595 77.522 21.6307C78.981 20.1034 80.946 19.3384 83.4205 19.3384ZM81.5654 33.0661C80.9416 32.8574 80.3795 32.5276 79.8846 32.0773V32.0775C79.3853 31.6233 78.9808 31.0361 78.6629 30.2992C78.3435 29.569 78.1866 28.6816 78.1866 27.6427C78.1866 26.6108 78.3435 25.7259 78.6629 24.9926C79.5513 22.9624 81.1374 21.9456 83.4203 21.9456C84.8131 21.9456 85.9885 22.3757 86.9383 23.2339C88.0802 24.2772 88.6507 25.746 88.6507 27.6278C88.6507 29.5747 88.0802 31.0678 86.9383 32.0936C86.4318 32.5291 85.8642 32.8574 85.2428 33.0661C84.6199 33.2765 84.0074 33.3809 83.4037 33.3809C82.7996 33.3809 82.1871 33.2765 81.5654 33.0661ZM138.607 24.2939C138.319 24.8768 138.107 25.4109 138.007 26.1379H146.968C146.747 24.69 146.2 23.6426 145.371 22.8792C144.59 22.1622 143.609 21.9452 142.486 21.9452C140.699 21.9452 139.353 22.7894 138.607 24.2939ZM161.458 25.4666C161.33 23.5045 159.84 22.5936 159.84 22.5936C159.84 22.5936 158.827 21.9155 157.354 21.9155C156.166 21.9155 155.035 22.1868 154.403 22.8644C153.797 23.5149 153.38 23.5149 152.14 23.5147L152.079 23.5147C151.292 23.5147 151.341 22.7324 151.479 22.4697C153.173 19.24 157.865 19.3462 157.865 19.3462V19.3441C160.185 19.3441 162.021 20.4648 162.761 21.2971C163.793 22.4338 164.309 23.7892 164.309 25.4909V33.3129V34.4127V35.1525C164.309 35.6122 163.946 35.9846 163.494 35.9846H162.301C161.855 35.9846 161.489 35.6122 161.489 35.1525V34.4127V33.8587L161.472 33.8732C160.809 34.4425 159.014 35.9846 155.665 35.9846C154.242 35.9846 153.148 35.5333 152.197 34.6952C151.205 33.8107 150.615 32.6868 150.615 31.2562C150.615 29.7031 151.193 28.486 152.351 27.5989C153.608 26.635 155.405 26.1537 157.74 26.1537H160.973C161.452 26.1537 161.471 25.5992 161.458 25.4666ZM161.478 30.2953L161.478 30.3055C161.475 30.4111 161.465 30.7207 161.283 30.9714C160.857 31.573 160.343 32.094 159.674 32.4812C158.907 32.9228 157.914 33.3806 157.026 33.3806C155.02 33.3806 153.756 32.5442 153.815 30.7751C153.845 29.8814 154.485 29.3609 155.239 29.0147C155.994 28.671 157.046 28.4949 158.389 28.4949H161.089C161.089 28.4949 161.478 28.4865 161.478 28.8619V30.2953ZM130.803 30.2101C130.029 32.3436 128.482 33.4103 126.16 33.4103C125.117 33.4103 121.418 32.9722 121.418 27.6902C121.418 23.3316 124.419 22.1245 126.16 22.1245C127.666 22.1245 128.87 22.5963 129.763 23.5367C130.701 24.5579 131.171 25.9694 131.171 27.7676C131.171 28.6861 131.048 29.5 130.803 30.2101Z" fill="#00343D"/>
<path fill-rule="evenodd" clip-rule="evenodd" d="M24.0924 16.4314C19.878 16.4314 16.4626 19.8375 16.4626 24.0377C16.4626 28.2369 19.878 31.6414 24.0924 31.6414C28.3056 31.6414 31.7215 28.2369 31.7215 24.0377C31.7215 19.8375 28.3056 16.4314 24.0924 16.4314ZM24.0924 13.2326L26.6109 15.7082L30.0731 14.9839L30.8486 18.425L34.155 19.68L32.9421 22.9913L35.0423 25.8301L32.225 27.9629L32.4525 31.4811L28.9259 31.7584L27.209 34.8412L24.0924 33.1725L20.9757 34.8412L19.2588 31.7584L15.7322 31.4811L15.9597 27.9629L13.1429 25.8301L15.2426 22.9913L14.0292 19.68L17.335 18.425L18.1116 14.9839L21.5732 15.7082L24.0924 13.2326Z" fill="#00343D"/>
<path fill-rule="evenodd" clip-rule="evenodd" d="M24.0918 11.9217C17.3895 11.9217 11.939 17.3564 11.939 24.0378C11.939 30.7181 17.3895 36.1522 24.0918 36.1522C30.793 36.1522 36.2451 30.7181 36.2451 24.0378C36.2451 17.3564 30.793 11.9217 24.0918 11.9217ZM24.0918 38.3794C16.1583 38.3794 9.70361 31.9453 9.70361 24.0378C9.70361 16.1286 16.1583 9.69458 24.0918 9.69458C32.0247 9.69458 38.4805 16.1286 38.4805 24.0378C38.4805 31.9453 32.0247 38.3794 24.0918 38.3794Z" fill="#00343D"/>
<path fill-rule="evenodd" clip-rule="evenodd" d="M24.0924 27.2599C22.3093 27.2599 20.8589 25.8142 20.8589 24.0374C20.8589 22.26 22.3093 20.8142 24.0924 20.8142C25.8749 20.8142 27.3247 22.26 27.3247 24.0374C27.3247 25.8142 25.8749 27.2599 24.0924 27.2599ZM24.0924 19.2981C21.4703 19.2981 19.3389 21.4248 19.3389 24.0374C19.3389 26.6505 21.4703 28.7761 24.0924 28.7761C26.7133 28.7761 28.8458 26.6505 28.8458 24.0374C28.8458 21.4248 26.7133 19.2981 24.0924 19.2981Z" fill="#00343D"/>
</svg>
