<svg width="156" height="30" viewBox="0 0 156 30" fill="none" xmlns="http://www.w3.org/2000/svg">
<path fill-rule="evenodd" clip-rule="evenodd" d="M41.4136 17.2428L47.8044 24.7793C48.0793 25.1005 48.1295 25.454 47.9143 25.8111C47.8694 25.8944 47.7876 25.9631 47.7098 26.0284C47.6992 26.0373 47.6886 26.0461 47.6783 26.0549L47.4624 26.2377L46.6983 26.8888C46.3758 27.1633 45.9073 27.1703 45.5693 26.8331L38.9523 18.9623V26.2837C38.9523 26.7402 38.5824 27.0892 38.14 27.0892H36.8959C36.4653 27.0892 36.0835 26.7535 36.0835 26.2594V3.9471C36.0835 3.5817 36.4211 3.18945 36.8959 3.18945H38.14C38.6277 3.18945 38.9523 3.56419 38.9523 4.01497V16.4618V16.479L45.3149 10.6498C45.5688 10.379 45.9848 10.3718 46.2438 10.6415L46.8882 11.3164C47.0503 11.478 47.1616 11.8583 47.0005 12.1856C46.9772 12.2265 46.9135 12.3374 46.8556 12.3973L41.4308 17.2238L41.4136 17.2428ZM117.554 10.4804C119.532 10.4804 121.223 11.201 122.626 12.6443C124.175 14.2275 124.952 16.2809 124.952 18.7865C124.952 21.337 124.175 23.3906 122.626 24.9589C121.204 26.3811 119.508 27.0891 117.539 27.0891C115.576 27.0891 113.858 26.417 112.418 24.9624V26.2612C112.418 26.7189 112.059 27.0891 111.611 27.0891H110.354C109.91 27.0891 109.549 26.7315 109.549 26.2741V25.5259V24.4324V6.90684V5.72009V5.19859C109.549 4.74414 109.91 4.38508 110.354 4.38508H111.611C112.059 4.38508 112.418 4.75515 112.418 5.20977V6.90684V6.91318V13.0499C113.773 11.4197 115.582 10.4804 117.554 10.4804ZM104.616 17.2426V24.2228V25.6988V26.2755C104.616 26.7248 104.977 27.089 105.415 27.089H106.704C107.147 27.089 107.497 26.7248 107.497 26.2755V25.6988V24.2228V16.3864C107.497 14.7977 107.065 13.4564 106.256 12.3637C105.326 11.084 103.874 10.5028 102.311 10.442C100.366 10.442 99.4728 10.771 98.3085 11.6142C97.4986 12.2684 97.1089 12.8812 96.7922 13.4012C96.3174 12.5269 95.8822 12.0146 95.277 11.5588C94.1214 10.6879 93.1236 10.4992 92.1067 10.4456C90.1651 10.3731 88.3665 11.0774 87.1009 12.7626V12.0256V11.8894C87.1009 11.4416 86.7427 11.0759 86.3041 11.0759H84.9993C84.5618 11.0759 84.2034 11.4416 84.2034 11.8894V12.0256V13.5451V24.2228V25.6988V26.2755C84.2034 26.7248 84.5618 27.089 84.9993 27.089H86.3041C86.7427 27.089 87.1009 26.7248 87.1009 26.2755V25.6988V24.2228V17.2426C87.1009 16.7214 87.5707 13.0423 91.3194 13.0423C94.0477 13.0423 94.4115 15.6451 94.4115 16.9432V24.2228V25.6988V26.2755C94.4115 26.7248 94.7669 27.089 95.2109 27.089H96.4812C96.9213 27.089 97.2767 26.7248 97.2767 26.2755V25.6988V24.2228V17.2426C97.2767 17.2426 97.4798 13.0496 101.473 13.0496C104.905 13.0496 104.616 17.2426 104.616 17.2426ZM133.604 24.4853C130.378 24.294 128.977 21.7025 128.977 19.7365H139.374C139.374 19.7365 140.148 19.6 140.4 19.328C140.658 19.0584 140.784 18.7238 140.784 18.3267C140.784 16.1362 140.16 14.2949 138.912 12.8111C137.582 11.2238 135.774 10.4421 133.486 10.4421C131.073 10.4421 129.214 11.289 127.907 13.0015C126.741 14.523 126.159 16.4367 126.159 18.737C126.159 21.3902 126.854 23.434 128.246 24.8765C129.505 26.185 131.28 26.9689 133.471 27.0891C139.062 27.0891 140.491 22.4979 140.491 22.4979C140.8 21.4184 140.24 21.4059 139.467 21.3887L139.467 21.3887C139.347 21.3861 139.222 21.3833 139.094 21.3763C138.75 21.3558 138.372 21.5506 138.178 21.7579C138.061 21.8825 137.982 22.0177 137.982 22.0177C136.472 24.7505 133.604 24.4853 133.604 24.4853ZM56.9353 10.4429C59.3879 10.4429 61.3524 11.2079 62.8316 12.7352C64.3134 14.2845 65.0532 16.2958 65.0532 18.768C65.0532 21.2359 64.3134 23.2497 62.8316 24.798C61.3524 26.3273 59.3879 27.0891 56.9353 27.0891C54.4608 27.0891 52.4936 26.3273 51.0364 24.798C49.5557 23.2714 48.8174 21.2569 48.8174 18.768C48.8174 16.2748 49.5557 14.264 51.0364 12.7352C52.4936 11.2079 54.4608 10.4429 56.9353 10.4429ZM53.3985 23.1818C53.8948 23.6321 54.4566 23.9619 55.079 24.1706C55.7027 24.381 56.3149 24.4854 56.9179 24.4854C57.5232 24.4854 58.1335 24.381 58.7583 24.1706C59.3801 23.9619 59.9475 23.6336 60.4546 23.1981C61.5968 22.1723 62.1658 20.6792 62.1658 18.7323C62.1658 16.8504 61.5968 15.3817 60.4546 14.3384C59.5041 13.4802 58.3284 13.05 56.9349 13.05C54.6517 13.05 53.0638 14.0669 52.1787 16.0971C51.8588 16.8304 51.6997 17.7153 51.6997 18.7471C51.6997 19.7861 51.8588 20.6735 52.1787 21.4037C52.4932 22.1406 52.901 22.7278 53.3985 23.1819V23.1818ZM74.4205 10.4429C76.8725 10.4429 78.8381 11.2079 80.3179 12.7352C81.7996 14.2845 82.5379 16.2958 82.5379 18.768C82.5379 21.2359 81.7996 23.2497 80.3179 24.798C78.8381 26.3273 76.8725 27.0891 74.4205 27.0891C71.946 27.0891 69.981 26.3273 68.522 24.798C67.0414 23.2714 66.302 21.2569 66.302 18.768C66.302 16.2748 67.0414 14.264 68.522 12.7352C69.981 11.2079 71.946 10.4429 74.4205 10.4429ZM72.5654 24.1706C71.9416 23.9619 71.3795 23.6321 70.8846 23.1818V23.1819C70.3853 22.7278 69.9808 22.1406 69.6629 21.4037C69.3435 20.6735 69.1866 19.7861 69.1866 18.7471C69.1866 17.7153 69.3435 16.8304 69.6629 16.0971C70.5513 14.0669 72.1374 13.05 74.4203 13.05C75.8131 13.05 76.9885 13.4802 77.9383 14.3384C79.0802 15.3817 79.6507 16.8504 79.6507 18.7323C79.6507 20.6792 79.0802 22.1723 77.9383 23.1981C77.4318 23.6336 76.8642 23.9619 76.2428 24.1706C75.6199 24.381 75.0074 24.4854 74.4037 24.4854C73.7996 24.4854 73.1871 24.381 72.5654 24.1706ZM129.607 15.3984C129.319 15.9812 129.107 16.5154 129.007 17.2424H137.968C137.747 15.7945 137.2 14.7471 136.371 13.9837C135.59 13.2667 134.609 13.0497 133.486 13.0497C131.699 13.0497 130.353 13.8939 129.607 15.3984ZM152.458 16.5711C152.33 14.609 150.84 13.6981 150.84 13.6981C150.84 13.6981 149.827 13.02 148.354 13.02C147.166 13.02 146.035 13.2913 145.403 13.9689C144.797 14.6194 144.38 14.6194 143.14 14.6192L143.079 14.6192C142.292 14.6192 142.341 13.8369 142.479 13.5742C144.173 10.3445 148.865 10.4507 148.865 10.4507V10.4485C151.185 10.4485 153.021 11.5693 153.761 12.4016C154.793 13.5383 155.309 14.8937 155.309 16.5954V24.4174V25.5172V26.257C155.309 26.7167 154.946 27.0891 154.494 27.0891H153.301C152.855 27.0891 152.489 26.7167 152.489 26.257V25.5172V24.9632L152.472 24.9777C151.809 25.547 150.014 27.0891 146.665 27.0891C145.242 27.0891 144.148 26.6378 143.197 25.7997C142.205 24.9152 141.615 23.7913 141.615 22.3607C141.615 20.8076 142.193 19.5905 143.351 18.7034C144.608 17.7395 146.405 17.2582 148.74 17.2582H151.973C152.452 17.2582 152.471 16.7037 152.458 16.5711ZM152.478 21.3998L152.478 21.41C152.475 21.5156 152.465 21.8252 152.283 22.0759C151.857 22.6775 151.343 23.1984 150.674 23.5857C149.907 24.0273 148.914 24.4851 148.026 24.4851C146.02 24.4851 144.756 23.6487 144.815 21.8796C144.845 20.9859 145.485 20.4654 146.239 20.1192C146.994 19.7755 148.046 19.5993 149.389 19.5993H152.089C152.089 19.5993 152.478 19.591 152.478 19.9664V21.3998ZM121.803 21.3146C121.029 23.4481 119.482 24.5148 117.16 24.5148C116.117 24.5148 112.418 24.0767 112.418 18.7947C112.418 14.4361 115.419 13.229 117.16 13.229C118.666 13.229 119.87 13.7008 120.763 14.6412C121.701 15.6624 122.171 17.0739 122.171 18.8721C122.171 19.7906 122.048 20.6045 121.803 21.3146Z" fill="#00343D"/>
<path fill-rule="evenodd" clip-rule="evenodd" d="M15.0924 7.53585C10.878 7.53585 7.46264 10.942 7.46264 15.1422C7.46264 19.3414 10.878 22.7459 15.0924 22.7459C19.3056 22.7459 22.7215 19.3414 22.7215 15.1422C22.7215 10.942 19.3056 7.53585 15.0924 7.53585ZM15.0924 4.33713L17.6109 6.8127L21.0731 6.08844L21.8486 9.52951L25.155 10.7845L23.9421 14.0958L26.0423 16.9346L23.225 19.0674L23.4525 22.5856L19.9259 22.8629L18.209 25.9457L15.0924 24.277L11.9757 25.9457L10.2588 22.8629L6.73216 22.5856L6.95971 19.0674L4.14294 16.9346L6.24258 14.0958L5.02919 10.7845L8.33499 9.52951L9.11165 6.08844L12.5732 6.8127L15.0924 4.33713Z" fill="#00343D"/>
<path fill-rule="evenodd" clip-rule="evenodd" d="M15.0918 3.0262C8.38951 3.0262 2.93901 8.46092 2.93901 15.1423C2.93901 21.8226 8.38951 27.2567 15.0918 27.2567C21.793 27.2567 27.2451 21.8226 27.2451 15.1423C27.2451 8.46092 21.793 3.0262 15.0918 3.0262ZM15.0918 29.4839C7.15832 29.4839 0.703613 23.0498 0.703613 15.1423C0.703613 7.23311 7.15832 0.799072 15.0918 0.799072C23.0247 0.799072 29.4805 7.23311 29.4805 15.1423C29.4805 23.0498 23.0247 29.4839 15.0918 29.4839Z" fill="#00343D"/>
<path fill-rule="evenodd" clip-rule="evenodd" d="M15.0924 18.3644C13.3093 18.3644 11.8589 16.9187 11.8589 15.1419C11.8589 13.3645 13.3093 11.9187 15.0924 11.9187C16.8749 11.9187 18.3247 13.3645 18.3247 15.1419C18.3247 16.9187 16.8749 18.3644 15.0924 18.3644ZM15.0924 10.4026C12.4703 10.4026 10.3389 12.5293 10.3389 15.1419C10.3389 17.755 12.4703 19.8806 15.0924 19.8806C17.7133 19.8806 19.8458 17.755 19.8458 15.1419C19.8458 12.5293 17.7133 10.4026 15.0924 10.4026Z" fill="#00343D"/>
</svg>
