<svg width="32" height="33" viewBox="0 0 32 33" fill="none" xmlns="http://www.w3.org/2000/svg">
<g filter="url(#filter0_d)">
<path d="M27.9911 19.7988C27.9479 19.4031 27.7502 19.0496 27.4343 18.8046L22.8089 15.2275C22.0226 14.6204 20.9618 14.5484 20.1035 15.045L19.2529 15.5368C18.7345 15.8355 18.0932 15.7961 17.6189 15.4292C16.9316 14.8999 15.9053 14.0623 14.9232 13.0787C13.9487 12.1028 13.1269 11.0952 12.6095 10.4218C12.2466 9.95019 12.2063 9.30948 12.5058 8.78983L12.9973 7.93683C13.4936 7.07618 13.4226 6.01282 12.8158 5.229L9.23972 0.60101C8.99596 0.285017 8.6446 0.0871747 8.24811 0.0429909C7.85161 -0.00311592 7.46473 0.115036 7.15847 0.3686C6.37317 1.01696 5.36416 1.86419 5.01379 2.21573C4.30335 2.92657 4 3.85738 4 5.33088C4 7.04931 7.15275 13.4409 10.9497 17.0814C14.6006 20.8948 20.9887 24.0484 22.7081 24.0484C24.1798 24.0484 25.1101 23.7449 25.8186 23.034C26.1978 22.6556 27.1386 21.526 27.6647 20.8882C27.9191 20.5807 28.0343 20.1945 27.9911 19.7988Z" fill="#00343D"/>
<path fill-rule="evenodd" clip-rule="evenodd" d="M20.3305 2.00632C22.984 2.9757 25.0599 5.05294 26.0277 7.7082C26.1019 7.91189 26.2944 8.03836 26.499 8.03836C26.5561 8.03836 26.6133 8.02832 26.6695 8.00725C26.9303 7.91194 27.0646 7.62489 26.9694 7.36401C25.9013 4.43078 23.6068 2.13382 20.6735 1.06409C20.4167 0.969762 20.1259 1.10422 20.0306 1.36314C19.9353 1.62299 20.0698 1.91097 20.3305 2.00632Z" fill="#00343D"/>
<path fill-rule="evenodd" clip-rule="evenodd" d="M19.2883 5.88255C20.6071 6.35949 21.6777 7.43195 22.1534 8.75118C22.2187 8.92906 22.3851 9.03891 22.5637 9.03891C22.6133 9.03891 22.663 9.03107 22.7117 9.01362C22.9383 8.93166 23.0558 8.68229 22.9739 8.45557C22.4103 6.8957 21.1437 5.62705 19.5844 5.06292C19.3596 4.98006 19.1088 5.09779 19.026 5.3245C18.9442 5.55122 19.0618 5.80059 19.2883 5.88255Z" fill="#00343D"/>
<path fill-rule="evenodd" clip-rule="evenodd" d="M18.3021 8.92106C18.6828 9.05747 18.9809 9.35575 19.1172 9.73768C19.1845 9.9241 19.359 10.0396 19.5453 10.0396C19.5953 10.0396 19.6471 10.0314 19.6979 10.0123C19.9351 9.92774 20.0578 9.66765 19.9733 9.43124C19.7452 8.79193 19.2472 8.29361 18.6074 8.06532C18.372 7.97984 18.1121 8.10444 18.0267 8.33997C17.9422 8.57638 18.0649 8.83647 18.3021 8.92106Z" fill="#00343D"/>
</g>
<defs>
<filter id="filter0_d" x="0" y="0.0332031" width="32" height="32.0152" filterUnits="userSpaceOnUse" color-interpolation-filters="sRGB">
<feFlood flood-opacity="0" result="BackgroundImageFix"/>
<feColorMatrix in="SourceAlpha" type="matrix" values="0 0 0 0 0 0 0 0 0 0 0 0 0 0 0 0 0 0 127 0"/>
<feOffset dy="4"/>
<feGaussianBlur stdDeviation="2"/>
<feColorMatrix type="matrix" values="0 0 0 0 0 0 0 0 0 0 0 0 0 0 0 0 0 0 0.25 0"/>
<feBlend mode="normal" in2="BackgroundImageFix" result="effect1_dropShadow"/>
<feBlend mode="normal" in="SourceGraphic" in2="effect1_dropShadow" result="shape"/>
</filter>
</defs>
</svg>
